<svg width="32" height="32" viewBox="0 0 32 32" fill="none" xmlns="http://www.w3.org/2000/svg">
<path d="M26.6667 11.3333V26C26.6667 29.308 23.9747 32 20.6667 32H6C2.692 32 0 29.308 0 26V11.3333C0 8.02533 2.692 5.33333 6 5.33333H20.6667C21.0347 5.33333 21.3333 5.632 21.3333 6C21.3333 6.368 21.0347 6.66667 20.6667 6.66667H6C3.42667 6.66667 1.33333 8.76 1.33333 11.3333V26C1.33333 28.5733 3.42667 30.6667 6 30.6667H20.6667C23.24 30.6667 25.3333 28.5733 25.3333 26V11.3333C25.3333 10.9653 25.632 10.6667 26 10.6667C26.368 10.6667 26.6667 10.9653 26.6667 11.3333ZM28.6667 0H19.3333C18.9653 0 18.6667 0.298667 18.6667 0.666667C18.6667 1.03467 18.9653 1.33333 19.3333 1.33333H28.6667C28.9747 1.33333 29.268 1.404 29.528 1.52933L10.8613 20.1947C10.6013 20.4547 10.6013 20.8773 10.8613 21.1373C10.992 21.268 11.1627 21.332 11.3333 21.332C11.504 21.332 11.6747 21.2667 11.8053 21.1373L30.4707 2.472C30.596 2.73333 30.6667 3.02533 30.6667 3.33333V12.6667C30.6667 13.0347 30.9653 13.3333 31.3333 13.3333C31.7013 13.3333 32 13.0347 32 12.6667V3.33333C32 1.496 30.504 0 28.6667 0Z" fill="white"/>
</svg>
