<svg width="88" height="86" viewBox="0 0 88 86" fill="none" xmlns="http://www.w3.org/2000/svg">
<path d="M15.5834 0H72.4168C81.0334 0 88 6.96661 88 15.5834V70.2168C88 78.8334 81.0334 85.8002 72.4166 85.8002H15.5834C6.96661 85.8 0 78.8334 0 70.2166V15.5834C0 6.96661 6.96661 0 15.5834 0Z" fill="#001834"/>
<path d="M19.7998 60.1698V22.4398C19.7998 22.1832 19.9098 22.0364 20.1664 22.0364C20.7898 22.0364 21.3764 22.0364 22.2198 21.9998C23.0998 21.9632 24.0164 21.9632 25.0064 21.9264C25.9964 21.8896 27.0598 21.8898 28.1964 21.853C29.333 21.8164 30.433 21.8164 31.533 21.8164C34.5396 21.8164 37.033 22.183 39.0864 22.953C40.9198 23.5764 42.6064 24.603 43.9998 25.9596C45.1732 27.133 46.0898 28.563 46.6764 30.1396C47.2264 31.6796 47.5198 33.2562 47.5198 34.9062C47.5198 38.0596 46.7864 40.6628 45.3198 42.7162C43.8532 44.7696 41.7998 46.3096 39.4164 47.1896C36.923 48.1062 34.173 48.4362 31.1664 48.4362C30.2864 48.4362 29.6998 48.4362 29.333 48.3996C28.9664 48.363 28.453 48.363 27.7564 48.363V60.133C27.793 60.3896 27.6098 60.6096 27.353 60.6464C27.3164 60.6464 27.2796 60.6464 27.2064 60.6464H20.2398C19.9464 60.6464 19.7998 60.4998 19.7998 60.1698ZM27.7932 29.1132V41.4332C28.3066 41.4698 28.7832 41.5066 29.2232 41.5066H31.1666C33.6985 41.5066 36.6226 40.9115 38.3898 38.9034C39.9107 37.175 39.915 33.7475 38.6832 31.8634C37.2209 29.6268 34.2966 28.9788 31.7898 29.04C30.8364 29.04 29.9932 29.04 29.2964 29.0766C28.5632 29.0398 28.0498 29.0764 27.7932 29.1132Z" fill="#00A9FF"/>
<path d="M70.4002 39.1968C69.3002 38.6102 68.1268 38.2068 66.8802 37.9502C65.5236 37.6568 64.1668 37.4735 62.7736 37.4735C62.0402 37.4369 61.2702 37.5469 60.5736 37.7302C60.097 37.8402 59.6936 38.0968 59.437 38.4635C59.2536 38.7569 59.1436 39.1235 59.1436 39.4535C59.1436 39.7835 59.2902 40.1135 59.5102 40.4069C59.8402 40.8103 60.2802 41.1403 60.7568 41.3969C61.6002 41.8369 62.4802 42.2403 63.3602 42.6069C65.3402 43.2669 67.2468 44.1835 69.0068 45.2835C70.2168 46.0535 71.2068 47.0802 71.9035 48.3269C72.4901 49.5003 72.7834 50.7835 72.7468 52.1035C72.7834 53.8269 72.2702 55.5502 71.3168 56.9802C70.2902 58.4468 68.8602 59.5835 67.2102 60.2435C65.4136 61.0135 63.2136 61.4169 60.5736 61.4169C58.887 61.4169 57.237 61.2703 55.587 60.9403C54.3036 60.7203 53.0204 60.3169 51.847 59.7669C51.5904 59.6203 51.407 59.3635 51.4436 59.0703V52.6903C51.4436 52.5803 51.4802 52.4337 51.5902 52.3603C51.7002 52.2869 51.8102 52.3237 51.9202 52.3969C53.3502 53.2403 54.8536 53.8269 56.4668 54.1935C57.8602 54.5602 59.3268 54.7435 60.7934 54.7435C62.1868 54.7435 63.1768 54.5602 63.8368 54.2302C64.4234 53.9735 64.8268 53.3502 64.8268 52.6902C64.8268 52.1768 64.5335 51.7002 63.9468 51.2235C63.3602 50.7469 62.1502 50.1969 60.3534 49.5002C58.4834 48.8402 56.7601 47.9602 55.1468 46.8602C54.0102 46.0535 53.0568 44.9902 52.3602 43.7435C51.7736 42.5702 51.4802 41.2869 51.5168 40.0035C51.5168 38.4269 51.9568 36.9235 52.7634 35.5669C53.6801 34.1003 55.0368 32.9269 56.6134 32.1935C58.3368 31.3135 60.5001 30.9102 63.1034 30.9102C64.6068 30.9102 66.1468 31.0202 67.6501 31.2402C68.7501 31.3868 69.8135 31.6802 70.8035 32.0835C70.9501 32.1202 71.0968 32.2669 71.1701 32.4135C71.2067 32.5602 71.2435 32.7069 71.2435 32.8535V38.8302C71.2435 38.9768 71.1701 39.1235 71.0601 39.1968C70.7302 39.2702 70.5468 39.2702 70.4002 39.1968Z" fill="#00A9FF"/>
</svg>
