<svg width="89" height="89" viewBox="0 0 89 89" fill="none" xmlns="http://www.w3.org/2000/svg">
<path d="M88.5 44.8008C88.5 53.1878 86.1527 61.027 82.0796 67.6969C79.5097 71.9084 76.2501 75.6529 72.4606 78.7741C72.0674 79.0974 71.6686 79.4152 71.2645 79.7242C68.0211 82.2152 64.422 84.2626 60.5555 85.7801C55.5827 87.7303 50.166 88.8008 44.5 88.8008C38.834 88.8008 33.4192 87.7303 28.4445 85.7801C24.5778 84.2643 20.9789 82.2152 17.7355 79.7261C13.4324 76.4253 9.75805 72.345 6.92039 67.6988C2.8473 61.0287 0.5 53.1878 0.5 44.8008C0.5 20.5002 20.1995 0.800781 44.5 0.800781C55.1193 0.800781 64.8586 4.56141 72.4606 10.8275C82.2556 18.8965 88.5 31.1195 88.5 44.8008Z" fill="#F0EFEB"/>
<path d="M60.5554 42.7822V85.7782C55.5825 87.7285 50.1659 88.799 44.4999 88.799C38.8338 88.799 33.4191 87.7285 28.4443 85.7782V42.7822L38.8966 36.7461V79.7224L44.4999 82.9586L50.1032 79.7224V36.7461L60.5554 42.7822Z" fill="#F36306"/>
<path d="M82.0796 30.3569V67.6976C79.5098 71.9091 76.2501 75.6535 72.4606 78.7748C72.0674 79.0981 71.6686 79.4159 71.2646 79.7249V36.6013L44.5 21.1492L17.7355 36.6013V79.7266C13.4324 76.4258 9.75807 72.3455 6.92041 67.6993V30.3569L44.5 8.66406L82.0796 30.3569Z" fill="#F36306"/>
</svg>
