<svg width="75" height="87" viewBox="0 0 75 87" fill="none" xmlns="http://www.w3.org/2000/svg">
<path d="M0.00229557 3.73876L5.57088 74.9788C5.65448 76.0486 6.37859 76.9608 7.40152 77.2851L36.7035 86.5753C37.2217 86.7395 37.7781 86.7395 38.2962 86.5753L67.5983 77.2851C68.6212 76.9608 69.3453 76.0486 69.4289 74.9788L74.9975 3.73876C75.1173 2.20714 73.9068 0.898438 72.3706 0.898438H2.62938C1.09321 0.898438 -0.11727 2.20714 0.00229557 3.73876ZM60.7172 25.8422H24.4257L25.5209 35.942H59.9279L57.6771 64.7351L37.5 71.1322L17.3229 64.7351L16.147 49.6924H26.7375V57.0711L37.783 60.0355L48.7625 57.0711L49.6142 45.3116H15.8045L13.5598 16.5939H61.44L60.7172 25.8422Z" fill="#FC490B"/>
</svg>
