<svg width="58" height="86" viewBox="0 0 58 86" fill="none" xmlns="http://www.w3.org/2000/svg">
<path d="M29.0996 42.9008C29.0996 35.0769 35.4423 28.7344 43.2663 28.7344C51.0903 28.7344 57.433 35.0771 57.433 42.9008C57.433 50.7248 51.0902 57.0672 43.2663 57.0672C35.4421 57.0672 29.0996 50.7247 29.0996 42.9008Z" fill="#00BCFF"/>
<path d="M0.766602 71.2343C0.766602 63.4104 7.10927 57.0678 14.9333 57.0678L22.4829 53.082L29.1 57.0678V71.2343C29.1 79.0583 22.7573 85.4007 14.9333 85.4007C7.10927 85.4007 0.766602 79.0581 0.766602 71.2343Z" fill="#00CF7F"/>
<path d="M29.0994 0.402344L21.3906 13.7946L29.0994 28.7352H43.0674C50.8916 28.7352 57.2341 22.3926 57.2341 14.5688C57.2341 6.74488 50.8914 0.402344 43.0674 0.402344H29.0994Z" fill="#FF7361"/>
<path d="M0.567383 14.5688C0.567383 22.3926 6.91005 28.7352 14.7341 28.7352L22.2492 31.6377L29.0995 28.7352V0.402344H14.7339C6.91005 0.402344 0.567383 6.74488 0.567383 14.5688Z" fill="#FF4D12"/>
<path d="M0.766602 42.901C0.766602 50.725 7.10927 57.0674 14.9333 57.0674H29.1V28.7344H14.9333C7.10927 28.7344 0.766602 35.0771 0.766602 42.901Z" fill="#B659FF"/>
</svg>
