<svg width="85" height="86" viewBox="0 0 85 86" fill="none" xmlns="http://www.w3.org/2000/svg">
<path d="M73.4091 0.800781H11.5909C8.51681 0.800781 5.56862 2.02196 3.3949 4.19568C1.22118 6.3694 0 9.31759 0 12.3917L0 74.2099C0 77.284 1.22118 80.2322 3.3949 82.4059C5.56862 84.5796 8.51681 85.8008 11.5909 85.8008H73.4091C76.4832 85.8008 79.4314 84.5796 81.6051 82.4059C83.7788 80.2322 85 77.284 85 74.2099V12.3917C85 9.31759 83.7788 6.3694 81.6051 4.19568C79.4314 2.02196 76.4832 0.800781 73.4091 0.800781ZM50.831 68.68C49.469 68.9408 49.0054 68.1198 49.0054 67.4388C49.0054 66.5888 49.0392 63.7829 49.0392 60.2911C49.0392 57.8425 48.1747 56.244 47.2474 55.4616C53.154 54.8192 59.3648 52.6121 59.3648 42.586C59.404 39.9831 58.4268 37.4675 56.6409 35.5735C56.9065 34.9119 57.8048 32.2556 56.3753 28.6624C56.3753 28.6624 54.1537 27.9621 49.131 31.338C44.7814 30.166 40.1992 30.166 35.8497 31.338C30.769 27.9573 28.5426 28.6624 28.5426 28.6624C27.0937 32.2653 28.0114 34.9215 28.2866 35.5735C26.4965 37.4616 25.5155 39.9748 25.5531 42.5763C25.5531 52.5735 31.7543 54.8192 37.627 55.4712C36.6639 56.3943 36.067 57.6345 35.9463 58.963C34.425 59.6295 30.5759 60.7837 28.219 56.7945C28.219 56.7945 26.8185 54.2832 24.1526 54.1045C24.1526 54.1045 21.5591 54.0707 23.9642 55.6886C23.9642 55.6886 25.7125 56.4951 26.9199 59.5039C26.9199 59.5039 28.4798 64.5798 35.869 63.0102C35.869 65.1834 35.898 66.8255 35.898 67.4485C35.898 68.0715 35.4151 68.9457 34.0869 68.6994C23.5489 65.2607 15.9375 55.4809 15.9375 43.9479C15.9375 29.5317 27.823 17.8684 42.5 17.8684C57.177 17.8684 69.0625 29.5559 69.0625 43.9721C69.0625 55.4616 61.4608 65.2511 50.831 68.68Z" fill="white"/>
</svg>
