<svg width="79" height="79" viewBox="0 0 79 79" fill="none" xmlns="http://www.w3.org/2000/svg">
<path d="M65.5 28.125V63.875C65.5 71.9382 58.9382 78.5 50.875 78.5H15.125C7.06175 78.5 0.5 71.9382 0.5 63.875V28.125C0.5 20.0618 7.06175 13.5 15.125 13.5H50.875C51.772 13.5 52.5 14.228 52.5 15.125C52.5 16.022 51.772 16.75 50.875 16.75H15.125C8.8525 16.75 3.75 21.8525 3.75 28.125V63.875C3.75 70.1475 8.8525 75.25 15.125 75.25H50.875C57.1475 75.25 62.25 70.1475 62.25 63.875V28.125C62.25 27.228 62.978 26.5 63.875 26.5C64.772 26.5 65.5 27.228 65.5 28.125ZM70.375 0.5H47.625C46.728 0.5 46 1.228 46 2.125C46 3.022 46.728 3.75 47.625 3.75H70.375C71.1258 3.75 71.8407 3.92225 72.4745 4.22775L26.9745 49.7245C26.3407 50.3582 26.3407 51.3885 26.9745 52.0222C27.293 52.3407 27.709 52.4967 28.125 52.4967C28.541 52.4967 28.957 52.3375 29.2755 52.0222L74.7723 6.5255C75.0778 7.1625 75.25 7.87425 75.25 8.625V31.375C75.25 32.272 75.978 33 76.875 33C77.772 33 78.5 32.272 78.5 31.375V8.625C78.5 4.1465 74.8535 0.5 70.375 0.5Z" fill="white"/>
</svg>
