<svg width="25" height="22" viewBox="0 0 25 22" fill="none" xmlns="http://www.w3.org/2000/svg">
<path d="M0.773438 12.1016L9.85156 21.7266C10.0156 21.9453 10.2891 22 10.5078 22C10.7266 22 10.9453 21.9453 11.1094 21.7812C11.4922 21.4531 11.4922 20.9062 11.1641 20.5781L3.50781 12.375H24.125C24.6172 12.375 25 11.9922 25 11.5547C25 11.1172 24.6172 10.625 24.125 10.625H3.50781L11.1641 2.47656C11.4922 2.14844 11.4922 1.60156 11.1094 1.27344C10.7266 0.945312 10.1797 0.945312 9.85156 1.32812L0.773438 10.9531C0.445312 11.2812 0.445312 11.7734 0.773438 12.1016Z" fill="black"/>
</svg>
