<svg width="19" height="19" viewBox="0 0 19 19" fill="none" xmlns="http://www.w3.org/2000/svg">
<path d="M18.2266 18.0312C17.8984 18.3594 17.2969 18.3594 16.9688 18.0312L9.75 10.7578L2.47656 18.0312C2.14844 18.3594 1.54688 18.3594 1.21875 18.0312C0.890625 17.7031 0.890625 17.1016 1.21875 16.7734L8.49219 9.5L1.21875 2.28125C0.890625 1.95312 0.890625 1.35156 1.21875 1.02344C1.54688 0.695312 2.14844 0.695312 2.47656 1.02344L9.75 8.29688L16.9688 1.02344C17.2969 0.695312 17.8984 0.695312 18.2266 1.02344C18.5547 1.35156 18.5547 1.95312 18.2266 2.28125L10.9531 9.5L18.2266 16.7734C18.5547 17.1016 18.5547 17.7031 18.2266 18.0312Z" fill="white"/>
</svg>
