<svg width="56" height="56" viewBox="0 0 56 56" fill="none" xmlns="http://www.w3.org/2000/svg">
<g clip-path="url(#clip0_2533_54)">
<path d="M30.3333 42C30.3333 43.288 29.288 44.3333 28 44.3333C26.712 44.3333 25.6667 43.288 25.6667 42C25.6667 40.712 26.712 39.6667 28 39.6667C29.288 39.6667 30.3333 40.712 30.3333 42ZM28 35C28.644 35 29.1667 34.4773 29.1667 33.8333V12.8333C29.1667 12.1893 28.644 11.6667 28 11.6667C27.356 11.6667 26.8333 12.1893 26.8333 12.8333V33.8333C26.8333 34.4773 27.356 35 28 35ZM56 28C56 43.4397 43.4397 56 28 56C12.5603 56 0 43.4397 0 28C0 12.5603 12.5603 0 28 0C43.4397 0 56 12.5603 56 28ZM53.6667 28C53.6667 13.8483 42.1517 2.33333 28 2.33333C13.8483 2.33333 2.33333 13.8483 2.33333 28C2.33333 42.1517 13.8483 53.6667 28 53.6667C42.1517 53.6667 53.6667 42.1517 53.6667 28Z" fill="white"/>
</g>
<defs>
<clipPath id="clip0_2533_54">
<rect width="56" height="56" fill="white"/>
</clipPath>
</defs>
</svg>
