<svg width="87" height="87" viewBox="0 0 87 87" fill="none" xmlns="http://www.w3.org/2000/svg">
<g clip-path="url(#clip0_2223_3442)">
<path d="M0.600098 0.898438H86.4001V86.6984H0.600098V0.898438Z" fill="#FFDF00"/>
<path d="M58.236 67.9284C59.9642 70.7502 62.2128 72.8243 66.1896 72.8243C69.5303 72.8243 71.6644 71.1546 71.6644 68.8475C71.6644 66.0828 69.4718 65.1037 65.7946 63.4952L63.779 62.6304C57.9608 60.1517 54.0958 57.0465 54.0958 50.4821C54.0958 44.4352 58.7032 39.832 65.9036 39.832C71.0298 39.832 74.7151 41.6161 77.3708 46.2875L71.0924 50.3187C69.7101 47.8401 68.2188 46.8636 65.9036 46.8636C63.542 46.8636 62.0452 48.3618 62.0452 50.3187C62.0452 52.7376 63.5434 53.7167 67.0025 55.2149L69.0182 56.0782C75.8686 59.0159 79.7363 62.0107 79.7363 68.7439C79.7363 76.0029 74.0339 79.9797 66.376 79.9797C58.8882 79.9797 54.0508 76.4115 51.6837 71.7347L58.236 67.9284ZM29.7544 68.627C31.021 70.8742 32.1733 72.774 34.9433 72.774C37.5922 72.774 39.2633 71.7376 39.2633 67.7078V40.2925H47.3258V67.8166C47.3258 76.165 42.4312 79.9648 35.2865 79.9648C28.8311 79.9648 25.0927 76.624 23.1914 72.6003L29.7544 68.627Z" fill="black"/>
</g>
<defs>
<clipPath id="clip0_2223_3442">
<rect width="85.8" height="85.8" fill="white" transform="translate(0.600098 0.898438)"/>
</clipPath>
</defs>
</svg>
