<svg width="25" height="22" viewBox="0 0 25 22" fill="none" xmlns="http://www.w3.org/2000/svg">
<path d="M24.2266 12.1016L15.1484 21.7266C14.9844 21.9453 14.7109 22 14.4922 22C14.2734 22 14.0547 21.9453 13.8906 21.7812C13.5078 21.4531 13.5078 20.9062 13.8359 20.5781L21.4922 12.375H0.875C0.382812 12.375 0 11.9922 0 11.5547C0 11.1172 0.382812 10.625 0.875 10.625H21.4922L13.8359 2.47656C13.5078 2.14844 13.5078 1.60156 13.8906 1.27344C14.2734 0.945312 14.8203 0.945312 15.1484 1.32812L24.2266 10.9531C24.5547 11.2812 24.5547 11.7734 24.2266 12.1016Z" fill="black"/>
</svg>
