<svg width="85" height="86" viewBox="0 0 85 86" fill="none" xmlns="http://www.w3.org/2000/svg">
<path d="M62.5879 0.398438H22.4121C10.0342 0.398438 0 10.4327 0 22.8105V62.9863C0 75.3642 10.0342 85.3984 22.4121 85.3984H62.5879C74.9658 85.3984 85 75.3642 85 62.9863V22.8105C85 10.4327 74.9658 0.398438 62.5879 0.398438Z" fill="#00005B"/>
<path d="M34.805 54.4941H22.3007L20.1176 61.5647H10.3691L24.2514 23.7148H32.8294L46.8146 61.5647H37.0146L34.805 54.4941ZM24.4855 47.4501H32.6219L28.5412 34.3216L24.4855 47.4501ZM62.777 62.086C58.4622 62.086 54.9692 60.7994 52.3014 58.2262C49.6318 55.6529 48.2987 52.3044 48.2987 48.1789V47.4518C48.2987 44.5747 48.8316 42.0363 49.8975 39.835C50.9633 37.6336 52.5189 35.9319 54.5642 34.7267C56.6095 33.523 59.035 32.9204 61.8423 32.9204C65.7935 32.9204 68.9129 34.1473 71.2006 36.5993C73.4883 39.0514 74.6321 42.4696 74.6321 46.8541V50.2591H57.2154C57.5275 51.8362 58.2115 53.0764 59.269 53.9762C60.3266 54.8776 61.6945 55.3275 63.3763 55.3275C66.1487 55.3275 68.3152 54.358 69.8758 52.4156L73.8784 57.1471C72.786 58.6545 71.2404 59.8548 69.2383 60.748C67.2361 61.6395 65.0829 62.086 62.7786 62.086H62.777ZM61.7892 39.6772C59.2242 39.6772 57.6985 41.3756 57.2138 44.7723H66.0524V44.0966C66.0873 42.6921 65.732 41.6063 64.9866 40.8344C64.2412 40.0641 63.1754 39.6772 61.7892 39.6772Z" fill="#9999FF"/>
</svg>
