<svg width="88" height="60" viewBox="0 0 88 60" fill="none" xmlns="http://www.w3.org/2000/svg">
<path d="M25.2857 0.679627C10.9671 0.679627 0 19.3148 0 39.0203C0 51.356 5.9661 59.147 15.9681 59.147C23.1625 59.147 28.339 55.7604 37.5513 39.6696C37.5513 39.6696 41.3942 32.8963 44.0263 28.2288L49.5011 18.9638C54.1511 11.787 57.994 8.20739 62.5563 8.20739C72.0319 8.20739 79.6124 22.1574 79.6124 39.3011C79.6124 45.8287 77.4716 49.6189 73.0321 49.6189C68.7856 49.6189 66.7502 46.8113 58.6784 33.8263L51.2558 40.3013C59.661 54.3742 64.3462 59.147 72.8391 59.147C82.5779 59.147 88 51.2332 88 38.6343C88 17.9812 76.7872 0.644531 63.1529 0.644531C55.941 0.644531 50.2907 6.08417 45.1844 12.9802L39.5167 21.2976C33.919 29.8958 30.5149 35.2828 30.5149 35.2828C23.0572 46.9868 20.4778 49.6013 16.319 49.6013C12.0375 49.6013 9.51067 45.8462 9.51067 39.1607C9.51067 24.8422 16.6524 10.2078 25.1629 10.2078L25.2857 0.679627Z" fill="url(#paint0_linear_2223_3423)"/>
<path d="M45.6582 19.4572L39.5167 21.3523C33.919 29.9505 30.5149 35.3375 30.5149 35.3375C23.0572 47.0415 20.4778 49.656 16.319 49.656C12.0375 49.656 9.51067 45.9009 9.51067 39.2154C9.51067 24.8969 16.6524 10.2625 25.1629 10.2625L25.2857 0.699231C10.9671 0.681684 0 19.3168 0 39.0224C0 51.3581 5.9661 59.1491 15.9681 59.1491C23.1625 59.1491 28.339 55.7625 37.5513 39.6716C37.5513 39.6716 41.3942 32.8984 44.0263 28.2308L45.6582 19.4572Z" fill="url(#paint1_linear_2223_3423)"/>
<path d="M51.256 40.3189C59.6612 54.3918 64.3463 59.1471 72.8393 59.1471L73.0323 49.6189C68.7858 49.6189 66.7503 46.8289 58.6785 33.844C51.9053 22.8243 48.4484 17.3145 45.1846 13.0154C38.1657 4.08385 32.3049 0.679688 25.2859 0.679688L25.1631 10.2429C29.778 10.2429 33.6209 12.9101 39.5168 21.3503C41.991 24.8247 47.0622 33.0894 51.256 40.3189Z" fill="url(#paint2_linear_2223_3423)"/>
<path d="M45.1667 13.0154C38.1477 4.08385 32.2869 0.679688 25.2504 0.679688C18.3192 0.679688 12.1776 5.04895 7.66797 11.7871L14.4412 18.7182C17.2664 13.612 21.0742 10.2605 25.1627 10.2605C29.7776 10.2605 33.5854 12.8926 39.4813 21.3328L45.1667 13.0154Z" fill="url(#paint3_linear_2223_3423)"/>
<path d="M55.9238 47.6872C61.6969 56.0923 66.0487 59.1455 72.8395 59.1455C82.5783 59.1455 88.0004 51.2317 88.0004 38.6328L79.6128 39.2996C79.6128 45.8272 77.472 49.6174 73.0325 49.6174C69.6108 49.6174 67.6104 47.7925 62.7147 40.2472L55.9238 47.6872Z" fill="url(#paint4_linear_2223_3423)"/>
<defs>
<linearGradient id="paint0_linear_2223_3423" x1="0" y1="29.8958" x2="88" y2="29.8958" gradientUnits="userSpaceOnUse">
<stop stop-color="#0064E0"/>
<stop offset="0.061763" stop-color="#006AE5"/>
<stop offset="0.2183" stop-color="#007AF4"/>
<stop offset="0.8106" stop-color="#007DF6"/>
<stop offset="1" stop-color="#0080F9"/>
</linearGradient>
<linearGradient id="paint1_linear_2223_3423" x1="7.80612" y1="18.9176" x2="39.5548" y2="51.748" gradientUnits="userSpaceOnUse">
<stop stop-color="#0064E0"/>
<stop offset="0.0134753" stop-color="#0065E1"/>
<stop offset="0.2894" stop-color="#0075F0"/>
<stop offset="0.5971" stop-color="#007FF9"/>
<stop offset="1" stop-color="#0082FC"/>
</linearGradient>
<linearGradient id="paint2_linear_2223_3423" x1="18.4161" y1="-4.09035" x2="72.0843" y2="53.9089" gradientUnits="userSpaceOnUse">
<stop stop-color="#0082FB"/>
<stop offset="0.0216721" stop-color="#017CF5"/>
<stop offset="0.0904785" stop-color="#0471EA"/>
<stop offset="0.1872" stop-color="#066AE3"/>
<stop offset="0.4561" stop-color="#0668E1"/>
<stop offset="0.7462" stop-color="#056AE3"/>
<stop offset="0.8847" stop-color="#0472EB"/>
<stop offset="0.9742" stop-color="#017CF5"/>
<stop offset="1" stop-color="#0082FB"/>
</linearGradient>
<linearGradient id="paint3_linear_2223_3423" x1="7.66797" y1="11.0062" x2="45.1667" y2="11.0062" gradientUnits="userSpaceOnUse">
<stop stop-color="#0064E0"/>
<stop offset="0.4218" stop-color="#0069E4"/>
<stop offset="0.4332" stop-color="#0069E4"/>
<stop offset="1" stop-color="#0668E1"/>
</linearGradient>
<linearGradient id="paint4_linear_2223_3423" x1="55.9266" y1="48.8892" x2="88.0004" y2="48.8892" gradientUnits="userSpaceOnUse">
<stop stop-color="#066BE3"/>
<stop offset="0.3087" stop-color="#0470E9"/>
<stop offset="0.559" stop-color="#0279F2"/>
<stop offset="1" stop-color="#0080F9"/>
</linearGradient>
</defs>
</svg>
