<svg width="53" height="86" viewBox="0 0 53 86" fill="none" xmlns="http://www.w3.org/2000/svg">
<path d="M42.3999 22.051C48.2545 22.051 53 17.2936 53 11.4258C53 5.55814 48.2545 0.800781 42.3999 0.800781C42.3901 0.800781 42.3812 0.802162 42.3714 0.802162C18.9681 0.817443 0 19.8386 0 43.3011C0 66.7733 18.9834 85.8008 42.3999 85.8008C48.2545 85.8008 53 81.0434 53 75.1757C53 69.308 48.2545 64.5506 42.3999 64.5506L42.3901 64.5512C30.6864 64.5457 21.1995 55.0338 21.1995 43.3011C21.1995 31.565 30.6913 22.051 42.3999 22.051Z" fill="#0DC167"/>
</svg>
