<svg width="88" height="86" viewBox="0 0 88 86" fill="none" xmlns="http://www.w3.org/2000/svg">
<path d="M15.5834 0H72.4168C81.0334 0 88 6.96661 88 15.5834V70.2168C88 78.8334 81.0334 85.8002 72.4166 85.8002H15.5834C6.96661 85.8 0 78.8334 0 70.2166V15.5834C0 6.96661 6.96661 0 15.5834 0Z" fill="#390000"/>
<path d="M42.6433 51.4816H29.0033L26.2167 60.0982C26.1433 60.4282 25.8501 60.6482 25.5201 60.6116H18.6267C18.2233 60.6116 18.1133 60.3916 18.2233 59.9516L30.0299 25.9616C30.1399 25.595 30.2499 25.1916 30.3965 24.7516C30.5431 23.9816 30.6165 23.175 30.6165 22.3682C30.5799 22.1848 30.7265 22.0016 30.9099 21.9648H31.0199H40.4065C40.6999 21.9648 40.8465 22.0748 40.8831 22.2582L54.2665 60.0248C54.3765 60.4282 54.2665 60.6115 53.8999 60.6115H46.2365C45.9799 60.6481 45.7231 60.4648 45.6499 60.2081L42.6433 51.4816ZM31.1299 44.0382H40.4433L35.7499 28.7482L31.1299 44.0382Z" fill="#FF9A00"/>
<path d="M62.2602 28.2348C61.0502 28.2714 59.8768 27.7948 58.9968 26.9514C58.1534 26.0348 57.7134 24.8248 57.7502 23.578C57.7136 22.3314 58.1902 21.158 59.0702 20.3146C59.9502 19.4712 61.1236 19.0312 62.3336 19.0312C63.7636 19.0312 64.8636 19.4712 65.6702 20.3146C66.4768 21.1946 66.9168 22.368 66.8802 23.578C66.9168 24.8246 66.4768 26.0346 65.5968 26.9514C64.7536 27.8314 63.5068 28.308 62.2602 28.2348Z" fill="#FF9A00"/>
<path d="M58.1533 60.0593V31.8259C58.1533 31.4593 58.2999 31.3125 58.6299 31.3125H65.8899C66.2199 31.3125 66.3665 31.4959 66.3665 31.8259V60.0593C66.3665 60.4627 66.2199 60.6459 65.8899 60.6459H58.7033C58.3365 60.6459 58.1533 60.4259 58.1533 60.0593Z" fill="#FF9A00"/>
</svg>
