<svg width="88" height="86" viewBox="0 0 88 86" fill="none" xmlns="http://www.w3.org/2000/svg">
<path d="M72.6 0.367188H15.4C6.89481 0.367188 0 7.262 0 15.7672V70.0339C0 78.539 6.89481 85.4339 15.4 85.4339H72.6C81.1052 85.4339 88 78.539 88 70.0339V15.7672C88 7.262 81.1052 0.367188 72.6 0.367188Z" fill="#470137"/>
<path d="M45.2359 24.4316L34.4119 43.0289L46.0756 62.8289C46.3139 63.2322 46.2112 63.4302 45.7749 63.4302H38.5002C38.3201 63.4492 38.1384 63.4136 37.9789 63.3279C37.8193 63.2422 37.6892 63.1105 37.6056 62.9499L29.3959 47.8909H29.3336L21.3402 62.9499C21.2667 63.0932 21.1555 63.2137 21.0185 63.2983C20.8815 63.383 20.7239 63.4286 20.5629 63.4302H13.5669C13.1672 63.4302 13.0902 63.2322 13.3286 62.8289L24.7979 43.5716L13.8712 24.3106C13.6329 23.9916 13.7136 23.8302 14.1096 23.8302H21.3989C21.5552 23.819 21.7114 23.8528 21.8492 23.9275C21.9869 24.0022 22.1004 24.1148 22.1762 24.2519L29.8762 39.1312H29.9349L37.5946 24.2519C37.6701 24.1154 37.783 24.0032 37.9201 23.9285C38.0571 23.8539 38.2125 23.8198 38.3682 23.8302H44.9976C45.4376 23.8302 45.5146 24.0319 45.2359 24.4316Z" fill="#FF61F6"/>
<path d="M63.019 64.1659C58.7656 64.1659 55.4913 62.9595 52.9503 60.5505C50.4093 58.1415 49.1333 54.5812 49.1333 49.8659C49.1333 45.5808 50.4997 42.0608 53.2326 39.3059C54.631 37.8585 56.3124 36.7144 58.172 35.9449C60.0316 35.1753 62.0297 34.7967 64.042 34.8326C64.9426 34.8165 65.8417 34.9126 66.7186 35.1185V22.7106C66.712 22.6641 66.7162 22.6167 66.731 22.5721C66.7457 22.5275 66.7706 22.487 66.8036 22.4536C66.8366 22.4202 66.8769 22.3949 66.9213 22.3797C66.9657 22.3645 67.0131 22.3598 67.0596 22.3659H73.7623C73.9493 22.3659 74.0446 22.4796 74.0446 22.7106V57.4522C74.0446 58.9189 74.679 60.1692 74.778 61.2399C74.7982 61.3459 74.7807 61.4556 74.7284 61.5501C74.6762 61.6445 74.5925 61.7177 74.492 61.7569C71.203 63.3629 66.891 64.1659 63.019 64.1659ZM66.7333 58.4862V40.7505C66.495 40.3326 65.2336 39.9659 63.943 39.9659C62.8747 39.9382 61.8138 40.1493 60.8375 40.5838C59.8613 41.0184 58.9944 41.6653 58.3 42.4775C56.6088 44.4582 55.6965 46.9867 55.7333 49.5909C55.7333 52.8029 56.8333 55.0029 58.267 56.5319C58.9446 57.309 59.7793 57.9336 60.7159 58.3647C61.6526 58.7957 62.6699 59.0233 63.701 59.0326C65.0686 59.0326 66.407 58.8272 66.7333 58.4862Z" fill="#FF61F6"/>
</svg>
