<svg width="89" height="71" viewBox="0 0 89 71" fill="none" xmlns="http://www.w3.org/2000/svg">
<path fill-rule="evenodd" clip-rule="evenodd" d="M14.0631 49.1289L9.45929 50.8112L9.21289 64.5053L25.1481 58.6856C19.6819 56.8494 15.6911 53.6183 14.0631 49.1289Z" fill="#FDBD39"/>
<path fill-rule="evenodd" clip-rule="evenodd" d="M16.4719 34.6445L0.5 40.4789L9.46127 50.8115L14.0636 49.1292C12.4401 44.653 13.4403 39.5945 16.4719 34.6445Z" fill="#F69833"/>
<path fill-rule="evenodd" clip-rule="evenodd" d="M43.3528 14.8821C23.0117 22.3122 9.89837 37.6446 14.0637 49.1286L87.7206 22.2213C83.5553 10.7374 63.6924 7.45207 43.3528 14.8821Z" fill="#FECF33"/>
<path fill-rule="evenodd" clip-rule="evenodd" d="M58.4333 56.4691C78.7729 49.0375 91.9097 33.774 87.7224 22.2227L14.0625 49.1299C18.2513 60.6813 38.0922 63.8992 58.4333 56.4691Z" fill="#EE6723"/>
<path fill-rule="evenodd" clip-rule="evenodd" d="M87.7224 22.2227L14.0625 49.1299C15.5042 53.1075 21.0057 55.067 28.7217 55.067C36.2457 55.067 45.8772 53.2058 55.9179 49.5377C76.2575 42.1076 90.5677 30.0766 87.7195 22.2227" fill="#F69833"/>
<path fill-rule="evenodd" clip-rule="evenodd" d="M73.0611 16.2812C65.5372 16.2812 55.9056 18.1424 45.8649 21.8105C25.5253 29.2406 11.2151 41.2701 14.0634 49.1256L87.7203 22.2183C86.2786 18.2407 80.7787 16.2812 73.0611 16.2812Z" fill="#FDBD39"/>
<path fill-rule="evenodd" clip-rule="evenodd" d="M68.9934 65.2303C66.8257 65.2303 63.6298 63.2724 59.4894 59.4121C54.5952 54.845 48.9867 48.1555 43.6979 40.5744C38.4106 32.9962 34.0649 25.418 31.4631 19.2375C28.6295 12.5026 28.2247 8.36222 30.2619 6.92929C30.7092 6.61543 31.2475 6.45703 31.8635 6.45703C33.5208 6.45703 36.7504 7.69049 42.7212 13.5703L42.8532 13.6979L42.8341 13.8812C42.793 14.3036 42.7564 14.7304 42.7226 15.1484L42.6566 15.9786L42.07 15.389C35.6357 8.90635 32.8036 8.20675 31.884 8.20675C31.6215 8.20675 31.4132 8.25955 31.2636 8.36515C30.3792 8.98555 30.322 12.0274 33.0706 18.5555C35.6269 24.626 39.9081 32.0883 45.1265 39.5697C50.3478 47.0526 55.8697 53.6438 60.6789 58.1288C65.8635 62.9658 68.1999 63.488 68.9655 63.488C69.2295 63.488 69.4422 63.4322 69.602 63.3193C70.5334 62.6652 70.5348 59.4063 67.4695 52.378L67.3287 52.0568L67.6367 51.8882C67.9447 51.7195 68.2439 51.5538 68.5226 51.3954L68.8922 51.1856L69.0623 51.5743C71.2344 56.5536 73.2657 62.8822 70.6023 64.7551C70.1535 65.0705 69.6123 65.2303 68.9934 65.2303Z" fill="#EE6723"/>
<path fill-rule="evenodd" clip-rule="evenodd" d="M58.926 56.2577L58.8966 56.639C58.3818 63.0029 57.0266 70.6515 53.4964 70.9624C53.426 70.9683 53.3527 70.9712 53.2793 70.9712C50.8799 70.9712 48.611 67.5348 46.5356 60.7589C44.5703 54.3467 43.045 45.7403 42.2427 36.5194C41.439 27.303 41.4507 18.5588 42.2765 11.9016C43.1755 4.64608 44.8886 0.857705 47.3672 0.639173C47.4406 0.633306 47.5168 0.628906 47.5916 0.628906C49.3311 0.628906 51.9535 2.60009 54.6375 11.7755L52.8848 12.1128C51.9887 9.04751 51.0119 6.5542 50.0424 4.83821C49.1448 3.25422 48.2736 2.38156 47.5872 2.38156C47.5638 2.38156 47.5418 2.38156 47.5183 2.38449C46.4447 2.47836 44.8798 5.08461 44.0086 12.1172C43.1975 18.6556 43.1873 27.2678 43.9793 36.3669C44.7742 45.4675 46.2731 53.9477 48.2032 60.2441C49.0671 63.063 50.0146 65.3876 50.9444 66.9643C51.8009 68.4192 52.6296 69.22 53.2779 69.22C53.2999 69.22 53.3219 69.22 53.3453 69.2171C54.372 69.1276 56.3094 66.4158 57.1249 56.8752L58.926 56.2577Z" fill="#EE6723"/>
</svg>
