<svg width="87" height="86" viewBox="0 0 87 86" fill="none" xmlns="http://www.w3.org/2000/svg">
<mask id="mask0_2223_3470" style="mask-type:alpha" maskUnits="userSpaceOnUse" x="0" y="0" width="87" height="86">
<path fill-rule="evenodd" clip-rule="evenodd" d="M61.3673 85.4375C62.7129 85.9617 64.2474 85.9281 65.6056 85.2745L83.1964 76.8102C85.0448 75.9208 86.2203 74.05 86.2203 71.9978V14.6041C86.2203 12.5518 85.0449 10.6811 83.1964 9.79162L65.6056 1.32699C63.8231 0.469269 61.7369 0.679358 60.1725 1.81673C59.949 1.97921 59.7361 2.16061 59.5363 2.36053L25.8609 33.0833L11.1926 21.9488C9.82708 20.9123 7.91717 20.9972 6.64897 22.1508L1.94436 26.4304C0.393123 27.8414 0.391345 30.2819 1.94052 31.6953L14.6614 43.3008L1.94052 54.9062C0.391345 56.3196 0.393123 58.7601 1.94436 60.1712L6.64897 64.4507C7.91717 65.6043 9.82708 65.6893 11.1926 64.6527L25.8609 53.5183L59.5363 84.241C60.0691 84.774 60.6946 85.1754 61.3673 85.4375ZM64.8731 23.9048L39.3212 43.3008L64.8731 62.6967V23.9048Z" fill="white"/>
</mask>
<g mask="url(#mask0_2223_3470)">
<path d="M83.197 9.80407L65.5925 1.32782C63.5547 0.346691 61.1195 0.76055 59.5203 2.35976L1.88947 54.9055C0.339348 56.3188 0.341131 58.7593 1.89332 60.1704L6.60078 64.4499C7.86975 65.6035 9.78086 65.6885 11.1471 64.652L80.548 12.0031C82.8763 10.2367 86.2204 11.8974 86.2204 14.8199V14.6155C86.2204 12.5641 85.0453 10.694 83.197 9.80407Z" fill="#0065A9"/>
<g filter="url(#filter0_d_2223_3470)">
<path d="M83.197 76.7983L65.5925 85.2745C63.5547 86.2558 61.1195 85.8418 59.5203 84.2426L1.88947 31.6969C0.339348 30.2835 0.341131 27.843 1.89332 26.4319L6.60078 22.1524C7.86975 20.9988 9.78086 20.9139 11.1471 21.9503L80.548 74.5993C82.8763 76.3656 86.2204 74.705 86.2204 71.7826V71.9869C86.2204 74.0383 85.0453 75.9083 83.197 76.7983Z" fill="#007ACC"/>
</g>
<g filter="url(#filter1_d_2223_3470)">
<path d="M65.593 85.2745C63.5546 86.2551 61.1194 85.8403 59.52 84.241C61.4906 86.2116 64.86 84.8159 64.86 82.0291V4.57245C64.86 1.7856 61.4906 0.389935 59.52 2.36053C61.1194 0.76118 63.5546 0.346736 65.593 1.32699L83.1945 9.79164C85.044 10.6811 86.2202 12.5518 86.2202 14.6041V71.9978C86.2202 74.0501 85.044 75.9208 83.1944 76.8102L65.593 85.2745Z" fill="#1F9CF0"/>
</g>
<g style="mix-blend-mode:overlay" opacity="0.25">
<path fill-rule="evenodd" clip-rule="evenodd" d="M61.3155 85.4375C62.6612 85.9617 64.1957 85.9281 65.5538 85.2746L83.1446 76.8102C84.993 75.9208 86.1685 74.0501 86.1685 71.9977V14.6041C86.1685 12.5517 84.9931 10.681 83.1447 9.79159L65.5538 1.32699C63.7714 0.46927 61.6852 0.679359 60.1207 1.81673C59.8973 1.97921 59.6843 2.16062 59.4846 2.36053L25.8092 33.0833L11.1408 21.9488C9.77539 20.9123 7.86541 20.9973 6.59722 22.1508L1.89261 26.4304C0.341365 27.8415 0.339587 30.2819 1.88876 31.6953L14.6096 43.3007L1.88876 54.9063C0.339587 56.3197 0.341365 58.7601 1.89261 60.1711L6.59722 64.4507C7.86541 65.6043 9.77539 65.6892 11.1408 64.6527L25.8092 53.5182L59.4846 84.241C60.0173 84.774 60.6428 85.1755 61.3155 85.4375ZM64.8214 23.9048L39.2694 43.3007L64.8214 62.6968V23.9048Z" fill="url(#paint0_linear_2223_3470)"/>
</g>
</g>
<defs>
<filter id="filter0_d_2223_3470" x="-7.60531" y="12.8932" width="102.159" height="81.2409" filterUnits="userSpaceOnUse" color-interpolation-filters="sRGB">
<feFlood flood-opacity="0" result="BackgroundImageFix"/>
<feColorMatrix in="SourceAlpha" type="matrix" values="0 0 0 0 0 0 0 0 0 0 0 0 0 0 0 0 0 0 127 0" result="hardAlpha"/>
<feOffset/>
<feGaussianBlur stdDeviation="4.16667"/>
<feColorMatrix type="matrix" values="0 0 0 0 0 0 0 0 0 0 0 0 0 0 0 0 0 0 0.25 0"/>
<feBlend mode="overlay" in2="BackgroundImageFix" result="effect1_dropShadow_2223_3470"/>
<feBlend mode="normal" in="SourceGraphic" in2="effect1_dropShadow_2223_3470" result="shape"/>
</filter>
<filter id="filter1_d_2223_3470" x="51.1867" y="-7.53256" width="43.3669" height="101.667" filterUnits="userSpaceOnUse" color-interpolation-filters="sRGB">
<feFlood flood-opacity="0" result="BackgroundImageFix"/>
<feColorMatrix in="SourceAlpha" type="matrix" values="0 0 0 0 0 0 0 0 0 0 0 0 0 0 0 0 0 0 127 0" result="hardAlpha"/>
<feOffset/>
<feGaussianBlur stdDeviation="4.16667"/>
<feColorMatrix type="matrix" values="0 0 0 0 0 0 0 0 0 0 0 0 0 0 0 0 0 0 0.25 0"/>
<feBlend mode="overlay" in2="BackgroundImageFix" result="effect1_dropShadow_2223_3470"/>
<feBlend mode="normal" in="SourceGraphic" in2="effect1_dropShadow_2223_3470" result="shape"/>
</filter>
<linearGradient id="paint0_linear_2223_3470" x1="43.4483" y1="0.800781" x2="43.4483" y2="85.8008" gradientUnits="userSpaceOnUse">
<stop stop-color="white"/>
<stop offset="1" stop-color="white" stop-opacity="0"/>
</linearGradient>
</defs>
</svg>
