<svg width="85" height="86" viewBox="0 0 85 86" fill="none" xmlns="http://www.w3.org/2000/svg">
<path d="M43.0877 46.2305L33.0381 75.4336C36.04 76.3135 39.2137 76.7991 42.5022 76.7991C46.4016 76.7991 50.1441 76.1242 53.6237 74.8998C53.5343 74.756 53.4528 74.6035 53.3862 74.4379L43.0877 46.2305Z" fill="white"/>
<path d="M9.00293 43.2997C9.00293 56.5598 16.7088 68.0179 27.883 73.4467L11.9049 29.668C10.0468 33.8338 9.00293 38.4441 9.00293 43.2997Z" fill="white"/>
<path d="M65.1124 41.61C65.1124 37.4704 63.6268 34.6044 62.3524 32.3711C60.6538 29.612 59.0622 27.2762 59.0622 24.5162C59.0622 21.4372 61.3971 18.5711 64.6874 18.5711C64.8364 18.5711 64.9766 18.5895 65.1221 18.5966C59.1638 13.1388 51.2248 9.80469 42.503 9.80469C30.7987 9.80469 20.5028 15.8085 14.5156 24.9036C15.3009 24.9273 16.0398 24.9439 16.6709 24.9439C20.175 24.9439 25.5995 24.5189 25.5995 24.5189C27.4067 24.4102 27.6171 27.0632 25.8142 27.2762C25.8142 27.2762 23.999 27.4892 21.9805 27.5961L34.1766 63.8793L41.5065 41.8931L36.2862 27.5953C34.4825 27.4883 32.7742 27.2753 32.7742 27.2753C30.9705 27.1702 31.1808 24.411 32.9855 24.518C32.9855 24.518 38.5186 24.9431 41.808 24.9431C45.3113 24.9431 50.7375 24.518 50.7375 24.518C52.5448 24.411 52.756 27.0624 50.9505 27.2753C50.9505 27.2753 49.1335 27.4883 47.1168 27.5953L59.2234 63.6033L62.5646 52.4388C64.0116 47.8058 65.1124 44.4769 65.1124 41.61Z" fill="white"/>
<path d="M71.8926 27.2266C72.0364 28.2923 72.1188 29.4396 72.1188 30.6711C72.1188 34.07 71.4851 37.8914 69.5726 42.6691L59.3398 72.2508C69.2974 66.4433 75.998 55.654 75.998 43.2984C75.9989 37.4734 74.5098 31.9972 71.8926 27.2266Z" fill="white"/>
<path d="M42.5001 0.800781C19.0282 0.800781 0.000976562 19.8289 0.000976562 43.3008C0.000976562 66.7726 19.0282 85.8008 42.5001 85.8008C65.9719 85.8008 84.9992 66.7726 84.9992 43.3008C84.9992 19.8289 65.9719 0.800781 42.5001 0.800781ZM42.5019 80.5569C21.9574 80.5569 5.24577 63.8452 5.24577 43.299C5.24577 22.7563 21.9565 6.0447 42.5019 6.0447C63.0437 6.0447 79.7544 22.7572 79.7544 43.299C79.7553 63.8435 63.0428 80.5569 42.5019 80.5569Z" fill="white"/>
</svg>
